<?xml version="1.0" encoding="utf-8"?>
<svg width="216" height="216" viewBox="0 0 216 216" fill="none" stroke="none" version="1.1" xmlns:xlink="http://www.w3.org/1999/xlink" xmlns="http://www.w3.org/2000/svg">
  <g id="SingleElement">
    <path id="Rectangle" d="M170 0C195.409 0 216 20.5914 216 46L216 170C216 195.409 195.409 216 170 216L46 216C20.5914 216 0 195.409 0 170L0 46C0 20.5914 20.5914 0 46 0L170 0Z" style="fill:#00EC97;mix-blend-mode:normal;" />
    <g style="mix-blend-mode:normal;" transform="translate(42 79)">
      <path d="M15.4102 46.5L3.03516 46.5L3.03516 11.5898L15.5156 11.5898Q20.7773 11.5898 24.5859 13.6758Q28.3945 15.7617 30.4336 19.6758Q32.4844 23.5781 32.4844 29.0156Q32.4844 34.4648 30.4336 38.3906Q28.3828 42.3047 24.5508 44.4023Q20.7305 46.5 15.4102 46.5ZM10.418 40.1719L15.1055 40.1719Q20.0273 40.1719 22.5703 37.5234Q25.125 34.8633 25.125 29.0156Q25.125 23.2031 22.5703 20.5664Q20.0273 17.918 15.1172 17.918L10.418 17.918L10.418 40.1719ZM41.9957 46.5L34.0856 46.5L46.1442 11.5898L55.6481 11.5898L67.6832 46.5L59.7731 46.5L57.1832 38.543L44.5856 38.543L41.9957 46.5ZM46.4606 32.7773L55.3317 32.7773L51.0309 19.5703L50.7614 19.5703L46.4606 32.7773ZM102.32 29.0508Q102.32 34.7578 100.163 38.7656Q98.0071 42.7617 94.304 44.8711Q90.6126 46.9805 85.9719 46.9805Q81.3196 46.9805 77.6165 44.8711Q73.9251 42.75 71.7805 38.7422Q69.636 34.7227 69.636 29.0508Q69.636 23.332 71.7805 19.3359Q73.9251 15.3281 77.6165 13.2188Q81.3196 11.1094 85.9719 11.1094Q90.6126 11.1094 94.304 13.2188Q98.0071 15.3281 100.163 19.3359Q102.32 23.332 102.32 29.0508ZM94.843 29.0508Q94.843 23.4844 92.4173 20.5664Q90.0032 17.6367 85.9719 17.6367Q81.9524 17.6367 79.5266 20.5664Q77.1126 23.4844 77.1126 29.0508Q77.1126 34.582 79.5266 37.5234Q81.9524 40.4531 85.9719 40.4531Q90.0032 40.4531 92.4173 37.5234Q94.843 34.582 94.843 29.0508ZM129.424 27.7852L122.779 28.1953Q122.51 26.9297 121.397 26.0273Q120.295 25.125 118.397 25.125Q116.709 25.125 115.537 25.8398Q114.377 26.543 114.389 27.7148Q114.377 28.6523 115.127 29.3086Q115.889 29.9531 117.717 30.3398L122.451 31.3008Q130.01 32.8477 130.022 38.3906Q130.022 40.957 128.51 42.9023Q127.01 44.8477 124.385 45.9375Q121.76 47.0156 118.362 47.0156Q113.17 47.0156 110.076 44.8477Q106.994 42.668 106.479 38.918L113.627 38.543Q113.967 40.1367 115.197 40.957Q116.44 41.7773 118.385 41.7773Q120.295 41.7773 121.455 41.0273Q122.627 40.2773 122.639 39.1172Q122.592 37.1719 119.287 36.5156L114.752 35.6133Q107.147 34.0898 107.182 28.125Q107.17 24.3398 110.205 22.1602Q113.252 19.9805 118.279 19.9805Q123.237 19.9805 126.084 22.0781Q128.944 24.1758 129.424 27.7852Z" style="fill:#000000;" />
    </g>
  </g>
</svg>